<?xml version="1.0" standalone="no"?>
<!DOCTYPE svg PUBLIC "-//W3C//DTD SVG 20010904//EN"
 "http://www.w3.org/TR/2001/REC-SVG-20010904/DTD/svg10.dtd">
<svg version="1.0" xmlns="http://www.w3.org/2000/svg"
 width="640.000000pt" height="1280.000000pt" viewBox="0 0 640.000000 1280.000000"
 preserveAspectRatio="xMidYMid meet">
<g transform="translate(0.000000,1280.000000) scale(0.100000,-0.100000)"
fill="#000000" stroke="none">
<path d="M770 12773 c0 -25 22 -59 131 -203 52 -69 138 -188 191 -265 111
-162 187 -251 188 -221 1 53 -285 486 -405 614 -48 50 -91 92 -96 92 -5 0 -9
-8 -9 -17z"/>
<path d="M1355 12600 c-4 -11 -2 -44 4 -73 6 -28 15 -99 21 -157 12 -122 36
-269 51 -307 14 -37 14 -116 0 -142 -15 -27 -35 -27 -54 2 l-16 22 0 -31 c-1
-17 7 -42 18 -55 31 -41 57 -100 84 -194 14 -49 46 -136 71 -192 24 -56 51
-134 60 -175 21 -92 34 -125 52 -132 15 -6 76 -128 157 -316 61 -142 154 -436
177 -562 10 -57 33 -182 50 -278 48 -267 70 -374 81 -384 17 -18 9 77 -21 258
-17 99 -28 186 -25 194 9 24 41 -13 60 -67 19 -54 54 -121 55 -104 0 7 -14 47
-31 90 -117 296 -150 411 -204 718 -22 132 -63 337 -94 475 -10 44 -10 43 -5
-15 3 -33 14 -121 25 -195 28 -183 34 -260 22 -260 -19 0 -33 26 -62 111 -16
46 -61 165 -101 264 -116 287 -160 420 -170 514 -5 46 -14 89 -19 94 -5 5 -7
31 -4 56 4 40 1 56 -25 102 -35 63 -53 138 -81 339 -11 80 -27 181 -36 225 -8
44 -15 103 -15 132 0 54 -14 78 -25 43z"/>
<path d="M1630 12390 c0 -22 9 -80 20 -128 10 -49 28 -147 40 -219 11 -72 31
-177 44 -234 13 -57 28 -126 31 -154 14 -92 43 -236 50 -243 14 -13 -5 156
-24 215 -10 32 -21 103 -25 158 -6 103 -78 555 -97 613 -15 47 -39 42 -39 -8z"/>
<path d="M890 12355 c0 -26 38 -188 64 -271 13 -43 32 -115 41 -159 20 -95 40
-145 56 -145 15 0 7 52 -25 170 -13 47 -38 146 -55 220 -43 178 -50 200 -67
200 -8 0 -14 -7 -14 -15z"/>
<path d="M2754 12066 c-8 -33 15 -483 27 -514 5 -14 12 -22 15 -19 9 8 -19
557 -28 557 -4 0 -10 -11 -14 -24z"/>
<path d="M2377 11956 c-15 -12 -15 -15 -3 -25 23 -20 29 -66 12 -99 -17 -33
-17 -34 53 -327 22 -93 45 -206 51 -249 5 -44 12 -82 15 -84 15 -15 13 23 -10
189 -14 101 -32 236 -40 299 -8 63 -22 147 -31 185 -30 133 -27 125 -47 111z"/>
<path d="M1070 11662 c0 -35 68 -296 120 -457 15 -49 38 -121 49 -160 30 -103
44 -115 38 -35 -3 41 -23 120 -55 215 -28 83 -55 178 -61 212 -14 74 -46 175
-72 223 l-18 35 -1 -33z"/>
<path d="M5655 11308 c-123 -80 -316 -284 -447 -473 -154 -222 -366 -615 -441
-815 -19 -52 -56 -170 -81 -261 -25 -92 -57 -202 -70 -245 -35 -113 -88 -314
-131 -499 -21 -88 -57 -241 -80 -340 -23 -99 -48 -211 -54 -250 -7 -38 -25
-140 -41 -225 -41 -214 -76 -442 -100 -654 -18 -162 -23 -183 -47 -214 -22
-30 -26 -46 -29 -121 -2 -47 -10 -129 -18 -181 -17 -106 -32 -277 -41 -450 -3
-63 -12 -173 -20 -245 -8 -71 -19 -188 -26 -260 -28 -309 -33 -340 -52 -343
-14 -3 -17 5 -18 55 -1 93 -14 108 -28 32 -16 -84 -30 -119 -49 -119 -17 0
-16 18 17 265 23 166 36 385 51 850 6 171 15 337 20 370 13 84 38 383 50 615
6 107 20 294 30 415 26 294 46 659 65 1185 9 239 20 462 26 495 10 70 10 256
-1 335 -4 30 -8 50 -9 43 0 -6 -5 -45 -11 -85 -12 -88 -28 -357 -40 -683 -33
-894 -62 -1372 -110 -1870 -22 -225 -47 -554 -55 -730 -9 -176 -18 -339 -21
-362 -5 -45 -23 -59 -50 -39 -17 13 -17 22 -1 207 10 107 22 322 28 479 17
488 -18 1307 -72 1660 -41 270 -80 499 -121 700 -47 235 -48 193 18 594 19
115 34 228 34 250 0 23 5 59 10 82 5 22 14 87 19 145 6 57 15 151 21 208 7 65
8 107 2 113 -6 6 -12 6 -15 1 -9 -15 -35 -225 -57 -455 -20 -219 -47 -435 -56
-450 -3 -4 -11 -8 -19 -8 -18 0 -23 32 -30 200 -8 179 -34 512 -45 575 -11 63
-4 -256 12 -513 8 -137 8 -186 -1 -195 -20 -20 -32 6 -82 185 -94 329 -147
482 -133 383 10 -68 50 -233 97 -400 86 -310 136 -529 137 -602 0 -24 -11
-129 -24 -235 -14 -106 -30 -249 -35 -318 -33 -388 -55 -585 -86 -755 -38
-209 -40 -224 -25 -209 23 23 81 397 138 879 17 149 29 178 45 113 13 -49 -10
-1304 -28 -1503 -8 -93 -17 -180 -20 -193 -6 -25 -117 -102 -147 -102 -25 0
-26 7 -19 95 5 49 2 122 -6 190 -7 61 -16 151 -20 201 l-6 92 -48 6 c-26 4
-55 13 -63 22 -17 16 -17 17 9 214 13 95 21 401 17 623 -3 144 -22 94 -23 -61
-3 -292 -20 -333 -84 -195 -19 43 -43 90 -51 105 -8 15 -19 62 -23 103 -5 42
-11 78 -14 81 -2 3 -7 -50 -9 -118 -5 -122 -18 -178 -44 -178 -19 0 -23 51
-33 365 -7 202 -17 330 -35 460 -26 186 -46 374 -66 600 -14 160 -19 187 -32
179 -23 -14 26 -533 87 -919 17 -111 17 -166 -3 -173 -7 -2 -17 10 -23 27 -13
37 -28 39 -66 7 -16 -14 -34 -21 -40 -18 -6 4 -21 36 -32 72 -17 54 -23 108
-31 310 -10 257 -15 297 -80 740 -22 151 -52 356 -66 455 -15 99 -30 184 -35
190 -15 16 -10 -109 11 -253 11 -75 31 -227 45 -337 14 -110 30 -225 35 -255
29 -159 70 -531 68 -609 l-3 -86 -30 0 c-16 0 -40 -6 -52 -13 -12 -6 -24 -12
-27 -12 -9 0 -51 89 -77 160 -28 79 -59 133 -107 183 -43 44 -56 46 -70 10
-17 -44 -44 -247 -51 -378 l-6 -120 -26 -3 c-35 -4 -59 22 -59 62 0 38 -42
250 -65 331 -35 118 -40 33 -9 -142 20 -111 21 -168 5 -187 -21 -25 -37 -4
-56 77 -10 40 -35 137 -57 217 -22 80 -80 298 -129 485 -67 262 -88 329 -88
292 -2 -99 125 -651 220 -960 17 -54 29 -105 27 -114 -2 -9 -23 -22 -49 -29
-26 -8 -50 -21 -53 -30 -6 -16 9 -54 22 -54 4 0 41 -27 82 -61 41 -33 95 -71
120 -86 71 -41 177 -122 184 -140 10 -25 -6 -34 -44 -23 -56 16 -199 14 -249
-4 -57 -21 -88 -20 -100 2 -5 9 -25 62 -45 117 -21 55 -43 116 -51 135 -32 80
-127 395 -136 453 -5 34 -27 107 -48 162 -43 111 -88 260 -216 720 -89 315
-147 471 -153 408 -2 -17 15 -91 37 -164 56 -188 88 -315 96 -379 9 -74 286
-911 445 -1345 l52 -139 -16 -54 c-17 -60 -17 -61 67 -125 37 -28 78 -97 112
-192 11 -27 37 -71 60 -96 53 -60 118 -241 116 -323 -1 -48 2 -55 34 -83 19
-17 35 -41 35 -52 0 -12 20 -73 45 -135 25 -63 45 -121 45 -130 0 -22 -25 -20
-72 6 -41 23 -60 20 -82 -14 -11 -19 71 -236 135 -356 21 -41 39 -79 39 -87 0
-7 -13 -18 -30 -24 -36 -12 -37 -26 -8 -86 23 -46 20 -67 -7 -45 -8 7 -45 63
-82 124 -36 61 -112 179 -168 262 -112 164 -133 202 -160 282 -12 37 -24 56
-40 62 -45 17 -145 186 -176 295 -14 51 -19 60 -37 57 -24 -4 -72 61 -177 238
-92 155 -129 237 -155 350 -26 111 -40 134 -40 68 0 -26 -4 -49 -9 -52 -5 -3
-23 11 -41 32 l-31 37 17 -35 c9 -19 28 -48 41 -65 26 -33 70 -130 84 -185 4
-19 26 -109 48 -200 23 -91 47 -190 56 -220 20 -73 31 -190 18 -190 -6 0 -16
7 -23 15 -26 31 -20 6 11 -46 57 -96 89 -189 154 -450 63 -249 74 -309 57
-309 -24 0 -104 139 -287 495 -211 412 -256 497 -367 692 -98 173 -128 219
-128 197 0 -4 20 -51 45 -105 24 -53 56 -137 70 -186 28 -96 67 -222 125 -408
73 -229 100 -320 100 -335 0 -8 11 -33 25 -55 34 -55 33 -24 -4 95 -123 398
-151 494 -151 523 0 47 21 15 169 -253 22 -41 97 -187 165 -325 69 -137 166
-326 215 -420 50 -93 102 -204 115 -245 24 -73 67 -258 81 -350 9 -55 95 -429
130 -560 13 -52 47 -185 74 -295 28 -110 60 -227 71 -260 12 -33 32 -98 45
-145 13 -47 47 -152 74 -235 28 -82 51 -157 51 -167 0 -21 -11 -23 -28 -6 -20
20 -14 0 24 -75 42 -85 49 -93 82 -110 26 -12 39 -34 113 -191 l42 -89 -48
-42 c-56 -48 -53 -65 8 -65 90 -1 92 -4 162 -220 35 -107 73 -220 84 -250 11
-30 20 -63 21 -73 0 -21 -27 -34 -41 -20 -10 10 -101 248 -153 398 -28 79 -51
123 -61 113 -8 -7 30 -146 58 -214 13 -32 41 -111 62 -174 49 -149 59 -167
100 -184 60 -25 41 -62 -45 -91 -48 -16 -52 -16 -70 0 -10 9 -35 60 -56 113
-20 54 -91 228 -156 387 -224 544 -414 1064 -694 1895 -84 250 -153 451 -153
447 -2 -21 63 -255 104 -377 25 -74 72 -223 105 -330 69 -228 283 -860 340
-1005 22 -55 68 -179 104 -275 36 -97 104 -268 151 -380 151 -356 166 -400
135 -400 -10 0 -102 142 -129 201 -11 24 -60 154 -107 289 -83 234 -139 368
-151 357 -2 -3 25 -95 61 -205 95 -288 89 -315 -31 -134 -39 59 -77 118 -83
131 -7 13 -41 123 -75 246 -112 390 -215 724 -370 1205 -30 91 -78 243 -106
337 -29 95 -54 171 -57 169 -7 -7 47 -235 83 -351 351 -1133 414 -1350 395
-1369 -8 -8 -15 -5 -28 12 -40 53 -241 438 -332 635 -120 262 -356 816 -452
1062 -38 99 -74 185 -80 190 -7 7 -8 2 -2 -15 4 -14 17 -59 29 -100 34 -118
194 -535 293 -766 175 -406 191 -443 241 -532 28 -50 86 -162 129 -249 44 -87
127 -238 185 -335 95 -162 107 -188 131 -285 15 -60 52 -195 83 -302 72 -254
126 -492 113 -505 -6 -6 -13 -6 -19 0 -36 35 -221 393 -387 746 -32 69 -60
125 -62 124 -1 -2 29 -82 67 -178 80 -203 203 -452 341 -693 53 -93 113 -206
132 -250 36 -81 137 -406 278 -885 42 -146 91 -309 109 -362 17 -54 65 -229
107 -390 78 -301 88 -328 134 -388 48 -60 55 -100 50 -265 -6 -233 -5 -417 3
-447 9 -33 32 -36 47 -8 23 43 64 448 57 565 -5 72 -3 105 5 113 16 16 160 16
176 0 17 -17 15 -43 -8 -140 -38 -163 -60 -331 -63 -489 -2 -131 0 -154 13
-154 29 0 51 69 60 192 5 65 18 165 29 223 78 413 105 471 365 772 50 57 119
134 154 171 66 71 102 122 102 145 0 7 -20 21 -45 32 -52 22 -55 37 -21 83 35
47 63 108 77 163 6 27 31 90 55 139 38 79 44 102 50 180 3 50 19 146 34 215
70 305 104 523 125 790 8 96 28 253 45 349 17 96 48 314 70 485 22 171 48 372
60 446 11 74 29 232 40 350 54 597 72 777 90 910 11 80 33 307 50 505 17 198
39 446 50 550 11 105 26 350 35 545 18 417 30 586 50 695 8 44 24 161 35 260
29 248 33 274 106 580 36 149 69 295 75 325 23 128 42 222 69 340 16 69 32
145 36 169 3 24 17 75 29 112 13 38 31 105 40 151 39 191 230 718 345 953 29
59 99 168 170 265 157 216 156 214 130 240 -34 34 -76 26 -165 -32z m-285
-469 c0 -6 -41 -104 -90 -219 -105 -241 -247 -613 -313 -815 -25 -77 -82 -275
-127 -440 -45 -165 -112 -408 -150 -540 -99 -346 -120 -433 -210 -895 -44
-228 -88 -449 -96 -490 -11 -58 -13 -98 -6 -178 10 -108 15 -123 35 -103 8 8
12 56 12 159 1 121 5 159 22 212 11 36 26 108 33 160 6 52 20 129 30 170 10
41 24 120 30 175 6 55 22 150 36 210 38 171 152 597 164 609 38 38 30 -81 -25
-397 -14 -78 -25 -151 -24 -162 0 -18 1 -18 9 3 6 13 14 51 20 85 5 34 25 118
44 187 19 69 42 169 51 223 10 58 24 106 35 120 39 47 38 4 -6 -208 -24 -115
-57 -304 -74 -420 -17 -115 -40 -265 -50 -333 -20 -119 -28 -251 -50 -767 -6
-137 -19 -340 -30 -450 -10 -110 -22 -238 -25 -285 -4 -47 -26 -269 -50 -495
-24 -225 -48 -475 -54 -555 -67 -897 -84 -1050 -118 -1050 -13 0 -14 33 -8
283 3 155 11 327 16 382 12 113 23 241 39 460 6 83 18 169 26 192 10 28 13 58
9 90 -23 182 -35 142 -51 -173 -7 -148 -18 -305 -23 -349 -21 -167 -41 -441
-56 -765 -8 -184 -19 -384 -25 -445 -5 -60 -8 -175 -8 -255 1 -114 -3 -166
-20 -245 -26 -122 -43 -252 -82 -635 -42 -411 -80 -614 -110 -595 -5 3 -10 30
-10 58 0 81 -5 83 -96 59 -94 -26 -109 -19 -100 43 8 61 141 350 186 407 21
27 37 55 34 63 -8 20 -51 33 -134 40 -95 8 -110 12 -110 34 0 9 14 39 32 67
109 171 224 531 178 559 -5 3 -31 -3 -56 -14 -50 -23 -70 -26 -78 -13 -3 5 22
67 56 138 33 71 69 152 78 179 10 28 30 83 44 122 52 142 43 296 -17 317 -41
15 -125 -17 -212 -79 -42 -30 -80 -55 -86 -55 -15 0 -10 30 17 110 14 41 43
145 65 230 23 90 53 182 73 220 18 36 54 105 80 154 25 48 46 97 46 107 0 14
-14 26 -45 39 -35 15 -45 24 -45 43 0 29 85 1155 100 1327 6 68 14 128 16 132
13 21 24 3 25 -39 1 -27 4 -59 8 -73 7 -24 7 -24 15 -5 5 11 12 101 17 200 4
99 10 200 14 225 3 25 21 193 40 375 32 299 72 575 110 753 7 37 25 145 39
240 28 189 72 401 87 417 6 6 18 0 32 -18 21 -26 23 -27 44 -12 13 9 29 38 38
68 17 59 48 247 42 253 -5 5 -52 -124 -67 -186 -18 -68 -80 -123 -80 -71 0 47
133 599 170 706 11 33 41 137 67 230 58 217 112 371 178 511 49 105 69 133 82
120 3 -3 -17 -77 -45 -163 -109 -334 -272 -918 -272 -971 0 -39 22 11 45 101
32 126 221 718 289 905 92 251 211 497 315 649 33 49 61 68 61 42z m-240 -824
c-67 -280 -133 -576 -155 -685 -46 -237 -48 -245 -70 -249 -29 -5 -42 -18 -73
-72 -26 -47 -52 -64 -52 -35 0 16 166 603 216 761 44 143 104 306 117 323 17
22 27 -1 17 -43z m-2647 -635 c71 -184 97 -349 63 -395 -12 -16 -17 -17 -42
-6 -59 24 -93 63 -104 116 -14 67 -25 332 -16 379 6 31 11 37 29 34 18 -2 30
-26 70 -128z m1201 -107 c7 -22 69 -452 90 -620 73 -587 89 -1662 31 -2056
-27 -184 -62 -203 -57 -32 4 113 -14 462 -24 490 -5 12 -15 14 -40 9 -43 -8
-43 0 -9 121 33 115 43 141 74 189 24 36 24 39 7 52 -10 7 -44 16 -75 19 -86
10 -85 8 -77 68 32 253 45 615 46 1274 0 259 3 478 6 487 8 21 21 20 28 -1z
m-956 -158 c37 -89 33 -181 -11 -283 -19 -45 -40 -78 -49 -80 -27 -5 -43 69
-43 208 0 108 3 131 22 173 30 64 49 60 81 -18z m-522 -50 c119 -53 309 -216
340 -290 16 -40 18 -81 4 -90 -6 -4 -54 36 -108 87 -53 52 -137 122 -187 156
-49 34 -110 79 -135 100 -40 35 -43 41 -31 56 17 20 41 16 117 -19z m683 -139
c37 -45 67 -459 42 -576 -15 -67 -82 -204 -103 -208 -10 -2 -23 19 -41 65 -50
128 -67 216 -67 349 0 120 1 126 40 228 23 57 50 116 61 130 23 29 50 34 68
12z m-529 -270 c106 -29 219 -85 253 -125 16 -20 28 -49 32 -79 3 -26 8 -63
10 -83 7 -52 -10 -63 -66 -44 -24 8 -64 20 -88 26 -33 8 -62 27 -110 73 -126
119 -176 159 -234 186 -78 38 -91 49 -75 68 18 21 167 9 278 -22z m-185 -127
c22 -17 57 -42 78 -57 74 -52 103 -80 92 -91 -14 -14 -151 -42 -169 -35 -16 6
-106 173 -106 197 0 36 46 29 105 -14z m968 -107 c50 -181 59 -407 22 -512
-36 -105 -120 -290 -131 -290 -13 0 -24 67 -24 143 0 48 -1 50 -19 33 -17 -16
-20 -16 -35 -1 -29 29 -50 124 -50 226 -1 93 0 99 41 180 23 46 49 109 59 139
19 63 49 127 72 153 14 16 17 16 32 2 10 -9 25 -42 33 -73z m-595 -142 c89
-40 209 -179 264 -305 23 -52 48 -152 48 -192 0 -25 -34 -13 -124 45 -50 32
-117 69 -149 82 -31 12 -60 26 -62 31 -3 4 -14 42 -25 83 -25 97 -38 122 -106
195 -30 33 -53 65 -49 71 11 18 156 12 203 -10z m-957 -101 c101 -149 201
-313 213 -347 8 -21 21 -85 30 -142 9 -58 23 -130 31 -160 16 -61 20 -166 6
-174 -27 -17 -170 203 -207 319 -38 118 -134 505 -134 538 0 41 18 31 61 -34z
m739 5 c40 -37 92 -131 105 -192 8 -39 -7 -62 -40 -62 -27 0 -36 18 -22 41 8
13 2 28 -25 65 -47 65 -91 153 -84 170 8 22 23 17 66 -22z m191 -346 c14 -27
-4 -47 -28 -32 -29 18 -40 43 -24 53 19 12 39 3 52 -21z m180 -64 c173 -101
279 -286 279 -486 0 -63 -3 -80 -16 -85 -38 -14 -142 66 -223 170 -40 53 -103
221 -137 365 -23 98 -14 102 97 36z m591 21 c8 -19 8 -46 -2 -111 l-12 -86 27
-28 c27 -29 28 -30 20 -121 -9 -119 -27 -187 -74 -279 -21 -41 -46 -97 -57
-125 -20 -54 -30 -66 -51 -58 -9 4 -13 27 -13 82 -1 74 -1 75 -15 44 -33 -76
-59 -17 -58 132 1 147 29 273 88 390 47 95 108 185 125 185 6 0 16 -11 22 -25z
m-792 -56 c19 -12 38 -27 43 -33 16 -24 78 -230 73 -242 -9 -23 -34 -16 -75
21 -31 28 -45 54 -75 138 -20 57 -36 111 -36 120 0 23 28 21 70 -4z m-559
-119 c32 -47 74 -123 94 -170 23 -57 39 -84 49 -82 23 4 271 -365 326 -484 25
-56 61 -124 79 -153 19 -30 35 -70 38 -94 l5 -42 -52 -23 c-28 -13 -58 -21
-66 -18 -8 3 -26 26 -42 52 -15 25 -51 78 -80 117 -30 40 -62 88 -72 107 -22
43 -73 220 -90 310 -13 73 -38 139 -39 105 -1 -11 9 -66 20 -121 22 -104 21
-134 -5 -134 -16 0 -112 122 -140 178 -22 43 -52 165 -82 331 -26 149 -30 215
-13 209 7 -2 38 -42 70 -88z m-187 -186 c6 -10 34 -57 63 -104 101 -166 121
-217 154 -387 17 -87 41 -198 54 -248 30 -113 36 -180 15 -180 -18 0 -109 152
-150 252 -17 40 -41 119 -54 176 -13 56 -45 189 -70 294 -25 106 -46 200 -46
209 0 20 21 13 34 -12z m811 -46 c79 -20 81 -22 167 -109 50 -50 109 -99 137
-113 108 -55 162 -168 177 -371 8 -118 0 -122 -83 -31 -32 35 -92 88 -133 117
-261 184 -312 232 -370 341 -17 31 -40 83 -50 114 -32 92 -19 96 155 52z
m1095 -22 c0 -30 -41 -129 -155 -376 -127 -272 -157 -357 -221 -613 -36 -144
-54 -180 -74 -147 -33 53 -48 494 -22 611 18 80 122 284 173 343 55 62 181
163 233 187 40 18 66 16 66 -5z m-40 -357 c-11 -20 -25 -25 -35 -10 -7 12 24
43 36 35 5 -3 5 -13 -1 -25z m-1583 -1 c30 -34 97 -136 126 -194 31 -61 102
-322 157 -575 44 -204 46 -219 26 -219 -25 0 -163 214 -196 304 -33 89 -160
630 -160 681 0 31 20 32 47 3z m1631 -235 c1 -100 -1 -231 -6 -293 l-9 -112
-41 -40 c-49 -50 -78 -48 -68 5 4 17 9 52 11 77 4 31 -2 17 -19 -45 -32 -118
-57 -175 -110 -249 -24 -34 -64 -98 -90 -143 -47 -82 -69 -100 -78 -65 -7 24
46 328 77 452 28 112 75 247 115 337 41 90 180 268 204 260 7 -2 12 -64 14
-184z m-968 113 c81 -40 195 -130 236 -184 48 -65 130 -236 150 -312 20 -77 9
-95 -36 -61 l-31 22 31 -60 c38 -77 64 -171 50 -185 -17 -17 -39 3 -118 105
-90 115 -201 230 -264 270 -26 17 -56 45 -67 62 -45 74 -117 312 -106 354 6
24 9 25 53 21 26 -3 72 -17 102 -32z m1456 -211 c6 -16 -12 -45 -27 -45 -10 0
-12 44 -2 53 11 11 23 8 29 -8z m-1839 -60 c59 -71 194 -373 232 -519 33 -127
28 -152 -40 -180 -29 -12 -40 -13 -52 -3 -27 21 -207 703 -192 728 10 16 23
10 52 -26z m-304 -172 c103 -174 123 -223 187 -463 71 -272 172 -627 199 -703
30 -84 49 -153 86 -312 19 -82 37 -159 40 -171 5 -16 -2 -27 -29 -48 -20 -15
-36 -32 -36 -37 0 -6 21 -19 48 -31 68 -30 87 -51 123 -139 32 -82 50 -104 25
-31 -8 22 -16 55 -18 74 -3 30 0 33 25 36 23 3 30 -2 41 -30 26 -61 81 -367
69 -379 -6 -6 -29 -13 -51 -16 -35 -5 -42 -2 -52 18 -7 13 -38 60 -69 104 -68
95 -113 192 -193 415 -104 287 -220 685 -285 970 -13 58 -43 188 -68 290 -47
197 -115 494 -115 504 0 3 9 6 19 6 13 0 31 -19 54 -57z m516 -7 c28 -40 40
-75 111 -316 46 -153 46 -160 21 -160 -24 0 -39 26 -80 137 -15 43 -49 133
-74 200 -55 144 -62 202 -21 186 8 -3 28 -24 43 -47z m196 -27 c129 -82 333
-361 414 -565 16 -42 17 -55 8 -69 -12 -15 -16 -13 -52 16 -69 54 -112 78
-219 120 -103 39 -104 40 -124 87 -11 26 -30 83 -42 127 -12 44 -36 126 -53
182 -16 56 -27 108 -24 117 9 24 38 19 92 -15z m1158 -105 c-1 -124 -25 -386
-48 -538 -10 -64 -19 -95 -34 -109 -11 -12 -24 -18 -28 -14 -4 4 0 54 7 110 8
56 15 149 16 207 1 58 6 130 12 160 6 30 16 96 23 145 14 117 27 167 42 162 9
-3 12 -38 10 -123z m-129 0 c18 -47 -22 -258 -85 -441 -74 -217 -190 -421
-236 -416 -20 2 -30 -24 -90 -239 -6 -22 -29 -23 -37 -2 -17 44 2 319 34 495
49 271 65 303 264 507 107 109 137 129 150 96z m-1411 -399 c65 -97 87 -137
87 -162 0 -59 41 -243 96 -436 56 -193 104 -412 104 -474 0 -36 -21 -53 -44
-34 -7 6 -21 39 -31 73 -9 35 -53 180 -97 323 -102 330 -146 482 -198 673 -59
220 -46 226 83 37z m463 -41 c116 -33 172 -65 237 -133 56 -59 127 -171 145
-231 6 -19 12 -66 14 -105 3 -74 0 -78 -45 -60 -16 7 -14 -2 12 -54 38 -74 65
-171 52 -184 -6 -6 -43 21 -99 74 -53 50 -127 107 -182 139 -56 33 -97 65
-106 81 -19 38 -59 180 -74 266 -7 40 -27 101 -44 135 -32 66 -30 65 -97 51
-18 -3 -28 0 -32 11 -16 42 91 47 219 10z m940 -101 c-11 -96 -37 -172 -68
-204 -27 -26 -68 -40 -68 -22 0 7 96 236 112 266 19 37 31 18 24 -40z m-1154
25 c22 -6 47 -22 57 -34 27 -34 77 -232 63 -246 -15 -15 -47 14 -74 67 -11 22
-39 67 -63 100 -86 122 -83 143 17 113z m8 -246 c43 -58 78 -93 103 -105 66
-33 46 -60 -57 -77 -88 -16 -92 -11 -122 122 -24 108 -29 150 -17 161 9 10 18
0 93 -101z m1310 57 c0 -6 -12 -30 -26 -54 -20 -35 -28 -66 -35 -147 -5 -56
-19 -143 -30 -193 -11 -49 -26 -117 -33 -151 -17 -77 -28 -97 -72 -130 -58
-45 -63 -24 -26 109 18 63 32 118 32 123 -1 5 -22 -46 -49 -112 -26 -67 -77
-173 -113 -235 -36 -63 -83 -153 -106 -201 -49 -105 -72 -117 -72 -35 1 28 7
81 15 117 18 84 18 82 -5 68 -51 -32 -63 73 -25 217 49 188 124 314 267 451
132 125 278 216 278 173z m56 -208 c-14 -228 -27 -313 -52 -338 -24 -24 -49
-30 -59 -13 -3 6 5 47 19 93 34 113 45 163 56 267 9 96 15 114 32 104 7 -5 8
-42 4 -113z m-1070 -137 c83 -40 104 -57 188 -145 89 -94 97 -106 135 -202 54
-140 78 -236 61 -247 -7 -5 -24 -4 -38 1 -14 5 -27 8 -29 5 -2 -2 9 -49 26
-104 31 -99 39 -152 22 -152 -4 0 -25 27 -45 60 -55 89 -136 172 -251 256
-133 96 -136 102 -145 324 -4 91 -10 173 -15 183 -5 11 -18 17 -42 17 -41 0
-73 15 -73 35 0 40 89 26 206 -31z m-186 -53 c32 -23 38 -64 39 -239 1 -112
-1 -134 -15 -139 -26 -10 -43 19 -65 113 -12 49 -31 130 -44 181 -17 68 -20
95 -11 103 14 15 64 5 96 -19z m1218 -223 c19 -19 14 -65 -14 -120 -42 -83
-71 -167 -108 -315 -63 -248 -104 -353 -207 -525 -108 -180 -128 -183 -99 -15
11 59 22 118 25 130 4 12 9 31 11 42 l5 20 -13 -20 c-7 -11 -27 -58 -44 -105
-18 -47 -39 -86 -47 -88 -18 -4 -37 85 -37 172 0 66 57 274 105 382 60 135
206 318 326 409 65 48 78 52 97 33z m-1153 -218 c37 -14 169 -104 233 -158 76
-65 143 -159 218 -305 100 -196 115 -257 50 -206 -15 12 -29 20 -31 18 -2 -2
21 -53 51 -113 53 -106 68 -166 41 -166 -8 0 -28 20 -46 45 -45 63 -116 122
-271 228 -80 55 -141 104 -152 123 -10 17 -24 78 -33 144 -15 121 -64 283 -96
324 -17 22 -23 24 -44 14 -32 -14 -78 4 -73 29 5 29 100 43 153 23z m1293
-534 c14 -171 -258 -816 -344 -816 -23 0 -17 19 41 120 55 98 119 267 113 298
-2 10 -12 -4 -22 -33 -59 -158 -259 -554 -284 -563 -18 -6 -15 44 8 127 12 40
19 76 16 78 -3 3 -19 -22 -35 -56 -31 -61 -53 -76 -65 -44 -10 26 14 301 30
352 46 135 140 273 286 421 87 88 198 163 233 158 15 -2 21 -12 23 -42z
m-1281 -102 c8 -21 -14 -34 -60 -34 -40 0 -62 24 -36 41 24 15 89 11 96 -7z
m121 -38 c26 -14 101 -62 167 -109 139 -97 174 -140 248 -310 46 -106 58 -157
36 -157 -6 0 -37 12 -69 26 -47 21 -62 24 -79 15 -29 -16 -27 -43 14 -144 34
-84 43 -127 28 -127 -5 0 -48 20 -97 45 -50 25 -112 48 -139 51 -67 9 -74 24
-82 174 -12 234 -51 454 -91 516 -16 23 -12 44 7 44 5 0 31 -11 57 -24z m-90
-151 c27 -85 33 -160 13 -160 -16 0 -85 201 -76 223 3 7 13 12 22 10 12 -2 25
-26 41 -73z m-521 -146 c66 -91 154 -256 177 -334 78 -258 127 -430 147 -507
20 -82 20 -90 5 -113 -22 -34 -21 -40 20 -78 29 -26 40 -48 54 -103 l18 -69 1
63 c1 60 2 63 23 60 19 -2 29 -20 58 -103 20 -55 48 -126 63 -159 33 -72 34
-84 2 -96 -64 -24 -75 -24 -75 3 0 24 -73 127 -91 127 -13 0 -12 -4 21 -45 28
-35 30 -44 30 -119 0 -53 7 -103 21 -146 43 -138 128 -552 129 -627 0 -13 -6
-23 -13 -23 -9 0 -30 55 -60 153 -247 813 -287 951 -277 961 6 6 18 2 35 -14
38 -36 30 -13 -25 70 -28 41 -59 99 -71 129 -38 103 -279 970 -279 1006 0 50
35 35 87 -36z m1683 -328 c-1 -43 -35 -154 -71 -230 -53 -109 -267 -428 -320
-475 -53 -48 -69 -38 -69 46 0 91 26 181 92 317 57 118 66 130 167 231 103
103 160 144 188 133 7 -3 13 -13 13 -22z m-609 -60 c61 -65 95 -186 101 -371
3 -61 0 -75 -13 -78 -21 -4 -33 26 -69 168 -17 66 -46 162 -64 214 -19 52 -32
97 -29 100 15 14 39 3 74 -33z m-771 -48 c17 -26 30 -51 30 -56 0 -5 9 -21 19
-36 10 -14 24 -46 31 -71 6 -25 25 -86 41 -137 37 -114 37 -167 -2 -171 -23
-3 -29 3 -46 45 -40 93 -132 411 -133 456 0 32 30 17 60 -30z m473 -64 c77
-30 190 -113 214 -156 12 -21 35 -73 53 -116 33 -80 34 -115 2 -102 -9 5 -47
10 -84 13 -62 4 -68 3 -68 -15 0 -10 22 -45 48 -76 27 -32 55 -75 62 -97 13
-38 9 -70 -9 -70 -5 0 -54 36 -110 79 -89 70 -147 106 -203 124 -9 3 -24 16
-32 29 -25 38 -66 197 -66 253 0 49 -3 55 -37 83 -35 29 -37 32 -22 47 38 39
159 40 252 4z m-306 -81 c5 -7 26 -76 46 -153 33 -126 35 -141 21 -155 -14
-13 -17 -13 -30 5 -16 21 -44 105 -75 220 -13 50 -15 73 -7 82 13 16 33 17 45
1z m1213 -321 c0 -7 -13 -38 -29 -68 -48 -89 -100 -242 -151 -446 -9 -37 -21
-50 -84 -97 -40 -30 -97 -81 -127 -115 -52 -59 -79 -75 -79 -48 0 27 90 189
164 296 71 103 102 158 92 168 -6 6 -109 -130 -185 -245 -34 -50 -68 -92 -76
-92 -38 0 -25 159 20 257 34 75 89 147 200 262 60 62 107 102 140 117 56 26
115 32 115 11z m-974 -102 c195 -95 315 -242 364 -447 30 -123 36 -210 17
-226 -13 -11 -26 -4 -87 52 -44 41 -96 77 -138 96 -169 77 -175 81 -209 145
-40 73 -69 161 -78 239 -7 54 -12 62 -64 112 -69 67 -62 78 49 69 57 -4 92
-14 146 -40z m399 2 c18 -28 54 -186 55 -238 0 -45 -30 -88 -47 -68 -6 8 -16
67 -23 132 -6 64 -16 132 -21 150 -12 43 -12 47 6 47 8 0 21 -11 30 -23z m593
-465 c2 -18 -6 -61 -17 -95 -11 -34 -30 -100 -41 -147 -50 -199 -185 -380
-228 -303 -9 14 -11 14 -22 -6 -12 -24 -95 -81 -117 -81 -7 0 -13 11 -13 25 0
23 -2 24 -26 13 -36 -17 -46 2 -41 77 3 52 13 77 78 195 90 164 154 233 284
308 106 62 138 65 143 14z m-956 -88 c181 -65 235 -109 293 -236 54 -119 65
-194 65 -432 0 -189 -3 -244 -25 -381 -34 -212 -52 -286 -73 -307 -23 -24
-126 -27 -168 -5 -57 29 -56 27 -44 254 6 114 13 217 15 228 3 11 0 72 -6 135
-26 287 -88 581 -145 688 -50 92 -36 100 88 56z m1053 -34 c13 -22 -37 -216
-87 -337 -23 -55 -35 -73 -49 -73 -29 0 -34 28 -12 59 49 65 82 158 98 276 10
72 32 105 50 75z m-1237 -23 c51 -54 102 -229 142 -486 30 -191 25 -300 -11
-264 -14 14 -56 171 -80 298 -11 61 -38 181 -60 269 -21 87 -39 169 -39 182 0
30 20 31 48 1z m1010 -480 c9 -10 -2 -33 -42 -93 -105 -157 -339 -599 -368
-696 -6 -22 -18 -42 -26 -45 -27 -11 -33 12 -18 83 8 38 17 107 21 154 10 129
32 249 54 289 134 250 161 281 281 307 73 16 86 16 98 1z m32 -239 c0 -7 -33
-54 -73 -104 -129 -163 -157 -189 -157 -146 0 21 98 163 153 220 40 41 77 55
77 30z m-912 -205 c29 -96 32 -128 12 -128 -17 0 -74 190 -65 214 10 25 27 -4
53 -86z"/>
<path d="M4657 8115 c-15 -88 -32 -201 -37 -250 -5 -50 -14 -115 -20 -145 -30
-160 -54 -457 -66 -820 -3 -102 -8 -188 -10 -192 -2 -4 -11 -55 -19 -115 -7
-59 -21 -147 -30 -195 -19 -104 -18 -359 2 -365 25 -9 37 45 43 202 4 88 12
171 17 185 17 41 22 132 28 505 3 193 8 386 11 430 9 126 50 452 84 658 17
104 30 205 28 225 -2 24 -13 -18 -31 -123z"/>
<path d="M3848 2013 c-17 -20 -100 -148 -118 -184 l-13 -24 22 20 c39 34 145
205 127 205 -1 0 -10 -8 -18 -17z"/>
<path d="M2970 11271 c0 -6 5 -13 10 -16 6 -3 10 1 10 9 0 9 -4 16 -10 16 -5
0 -10 -4 -10 -9z"/>
<path d="M2090 11229 c0 -17 14 -65 31 -107 17 -43 46 -122 65 -177 18 -55 49
-147 69 -205 19 -58 69 -226 110 -375 41 -148 79 -286 85 -305 6 -19 22 -89
36 -155 14 -66 34 -158 44 -205 l19 -85 -6 90 c-14 222 -161 804 -293 1165
-22 59 -44 130 -50 156 -10 54 -65 201 -82 221 -17 21 -28 15 -28 -18z"/>
<path d="M3522 11130 c0 -14 2 -19 5 -12 2 6 2 18 0 25 -3 6 -5 1 -5 -13z"/>
<path d="M3010 11079 c0 -11 4 -18 10 -14 5 3 7 12 3 20 -7 21 -13 19 -13 -6z"/>
<path d="M560 11050 c0 -19 180 -380 190 -380 15 0 -31 113 -105 259 -59 116
-85 153 -85 121z"/>
<path d="M1661 11015 c-2 -22 39 -286 58 -372 20 -91 58 -194 60 -161 2 36
-115 564 -118 533z"/>
<path d="M3035 10945 c3 -17 14 -95 25 -175 19 -132 57 -307 59 -269 3 58 -64
447 -80 464 -6 6 -8 -2 -4 -20z"/>
<path d="M3295 10877 c3 -27 9 -56 15 -65 16 -28 11 48 -6 83 -14 30 -14 30
-9 -18z"/>
<path d="M2807 10823 c-7 -36 11 -426 23 -521 6 -40 10 -78 10 -83 0 -5 5 -9
11 -9 13 0 10 99 -13 458 -11 173 -19 216 -31 155z"/>
<path d="M800 10555 c0 -9 30 -65 35 -65 7 0 -16 60 -26 66 -5 3 -9 2 -9 -1z"/>
<path d="M3121 10415 c0 -33 8 -127 20 -210 11 -82 24 -195 28 -250 5 -55 14
-143 20 -195 6 -52 18 -192 27 -310 21 -287 35 -347 29 -125 -4 185 -86 1002
-109 1095 l-14 55 -1 -60z"/>
<path d="M890 10365 c0 -13 42 -86 46 -82 6 5 -33 87 -41 87 -3 0 -5 -2 -5 -5z"/>
<path d="M987 10162 c3 -12 9 -25 14 -28 14 -8 11 10 -6 32 -13 18 -14 18 -8
-4z"/>
<path d="M4286 9528 c-9 -119 -24 -522 -20 -527 10 -11 14 17 28 198 18 215
21 411 7 411 -5 0 -12 -37 -15 -82z"/>
<path d="M1287 9478 c19 -50 43 -88 43 -70 0 15 -48 112 -55 112 -3 0 3 -19
12 -42z"/>
<path d="M1374 9285 c4 -16 54 -124 111 -240 126 -256 157 -327 186 -428 18
-60 29 -82 48 -91 31 -17 126 -182 151 -264 11 -34 36 -153 55 -265 41 -226
56 -289 73 -295 15 -5 15 19 2 89 -44 223 -46 249 -25 249 18 0 69 -77 132
-200 25 -50 50 -90 54 -90 9 0 -88 195 -176 355 -53 96 -66 149 -100 410 -32
246 -60 364 -80 343 -4 -3 5 -78 19 -165 14 -87 26 -180 28 -208 3 -44 1 -50
-17 -50 -38 0 -167 279 -196 426 -10 49 -14 58 -19 40 -9 -37 -29 -37 -44 1
-45 106 -180 385 -193 398 -14 13 -15 12 -9 -15z"/>
<path d="M3241 9093 c1 -16 5 -39 9 -53 6 -20 8 -14 9 28 1 28 -3 52 -9 52 -5
0 -10 -12 -9 -27z"/>
<path d="M1354 8869 c6 -52 24 -105 32 -96 7 7 -15 106 -28 127 -6 10 -8 0 -4
-31z"/>
<path d="M1215 8833 c13 -48 85 -156 85 -129 0 14 -49 102 -69 126 -21 24 -22
24 -16 3z"/>
<path d="M940 8468 c0 -21 43 -84 47 -71 3 7 -5 29 -17 48 -23 37 -30 43 -30
23z"/>
<path d="M1761 8093 c0 -5 4 -17 9 -28 8 -18 9 -17 9 8 1 15 -3 27 -9 27 -5 0
-10 -3 -9 -7z"/>
<path d="M3386 8047 c-8 -32 -7 -49 3 -43 12 8 20 55 11 61 -4 3 -10 -5 -14
-18z"/>
<path d="M1400 7191 c0 -31 27 -141 57 -231 14 -41 36 -109 48 -150 57 -184
75 -240 104 -320 16 -47 45 -134 65 -195 89 -281 288 -830 336 -925 15 -30 44
-93 63 -140 48 -116 116 -260 122 -260 6 0 -14 52 -78 200 -79 184 -197 500
-330 885 -182 528 -274 808 -348 1053 -29 99 -39 120 -39 83z"/>
<path d="M2242 4860 c9 -27 28 -50 28 -35 0 9 -30 65 -35 65 -2 0 1 -14 7 -30z"/>
</g>
</svg>
